PathFileType	4	(X/Y/Z)	T1_P1_Vision_Movement_1_0-686.trc
DataRate	CameraRate	NumFrames	NumMarkers	Units	OrigDataRate	OrigDataStartFrame	OrigNumFrames
60	60	5	27	m	60	0	686
Frame#	Time	RHip			RKnee			RAnkle			RBigToe			RSmallToe			RHeel			LHip			LKnee			LAnkle			LBigToe			LSmallToe			LHeel			Neck			Head			Nose			RShoulder			RElbow			RWrist			RThumb			RIndex			RPinky			LShoulder			LElbow			LWrist			LThumb			LIndex			LPinky		
		X1	Y1	Z1	X2	Y2	Z2	X3	Y3	Z3	X4	Y4	Z4	X5	Y5	Z5	X6	Y6	Z6	X7	Y7	Z7	X8	Y8	Z8	X9	Y9	Z9	X10	Y10	Z10	X11	Y11	Z11	X12	Y12	Z12	X13	Y13	Z13	X14	Y14	Z14	X15	Y15	Z15	X16	Y16	Z16	X17	Y17	Z17	X18	Y18	Z18	X19	Y19	Z19	X20	Y20	Z20	X21	Y21	Z21	X22	Y22	Z22	X23	Y23	Z23	X24	Y24	Z24	X25	Y25	Z25	X26	Y26	Z26	X27	Y27	Z27
1	0.016666666666666666	-71.23245459939912	3886.9636659142207	-701.7642020445396	265.67273222450035	3989.4822684299097	-684.5023271024686	628.1848475908834	4261.055914276545	-702.4075950357	694.9751165129966	4068.6248104253427	-633.2955643974543	706.1091025875082	4128.231082079213	-729.6980258574373	668.0180903036596	4293.965314166236	-697.5622327159064	-128.1163493933142	3974.5911370736053	-510.4716232453362	218.96045346885958	4060.4520448102726	-499.0420002291156	582.6434282400261	4326.974723725938	-540.1473185375263	655.256731504847	4156.702886220918	-474.5305628700076	637.9245142336528	4239.620029221349	-423.65749416553496	626.9079743474202	4373.564400522693	-568.1706371912155	-678.9313669867665	3743.429701529627	-622.2367797053212	-909.600596671765	3584.4897921530146	-561.8237238214936	-767.3341148777936	3629.800632450477	-543.031831841497	-565.8175578316964	3734.7520829944274	-755.6708461890586	-299.7600414788965	3749.948921897324	-840.1242044769022	-34.35780357461061	3773.5725966062246	-782.4515398478267	78.24168772114477	3803.364790987441	-712.2319901520275	90.75752550997782	3778.637601489159	-706.3120730928373	90.76924188421086	3763.189911829195	-723.8849724729257	-626.007896906694	3873.240758112259	-500.9778481735676	-393.97242349923846	3978.749986134431	-459.2424969894919	-142.03236303959247	3963.689897232327	-376.73406460105065	-8.141369414438273	4026.596396323129	-412.70317786689475	19.7080752337187	3962.0867939558884	-352.6679074035393	-10.24250347012134	4088.7127101246942	-367.29602951948897
2	0.03333333333333333	-65.5947231301781	3910.2971650803897	-712.7528089114949	276.35887651154815	3993.0101989191467	-677.5964092719852	623.4387111517408	4225.35916904548	-692.6290147511597	699.5989503176461	4099.85374231066	-641.6541642895942	705.6048655237929	4127.856009833218	-729.3550257395076	667.489594495228	4289.777346104475	-696.0905732384	-117.91427119903535	3981.150369321655	-511.9445299274577	225.55995161947936	4065.3528671812696	-501.2027624254323	582.365059197693	4326.431659983824	-539.7502798997705	659.575202569683	4179.395579415402	-484.50365286653124	636.4889485739412	4256.819053024572	-436.16399198026346	626.6375346095248	4372.488010949634	-567.9630542503801	-683.7511628901296	3741.710049731372	-622.3519490652833	-903.8656756986074	3560.832487533132	-555.2112445061169	-762.4904205994358	3630.910302533221	-543.1376806883699	-565.8776260561848	3734.4422695096673	-755.2701939955328	-301.9001516296836	3777.2535534353615	-849.0106317633162	-36.075788523629285	3754.9437751902924	-760.4579761774236	73.93879205775634	3829.1397547233632	-720.5885507879291	90.2150671275475	3779.233007027271	-706.2299656723882	94.77599778095956	3766.233894671413	-720.266189597351	-625.8512135025334	3872.929073222638	-500.79544821555817	-388.60121875091716	3982.7592376103034	-460.7007275292687	-142.23721873160014	3962.9595598300543	-376.4836831872997	-15.353657922823926	4004.816075881443	-398.3300842376379	14.151972219116177	3956.8153463486683	-350.3709488503004	-11.012409905000856	4057.7367524285587	-361.0660073370081
3	0.05	-70.24143308406562	3906.8439754322044	-717.3414833535656	270.68647488164885	3989.792047957899	-684.0446454725272	623.3003210058669	4226.7359529915775	-693.2122923832742	699.5037000689562	4100.659133621074	-642.0192371854911	716.0049900025217	4182.159643673543	-755.0192784518547	661.5675285146077	4287.3734062079	-696.9707550859821	-118.04181837936953	3981.1408394310743	-511.98507332535365	219.25782572910072	4060.7218220930804	-499.35735466958454	582.1729936746491	4326.128307137186	-539.8976534405828	659.7383585267464	4181.396275365432	-485.09920863776637	642.646918973469	4262.888774561272	-438.87879216861086	626.4533744469867	4372.044678401328	-568.0206068072301	-683.7640750272884	3741.802436084991	-622.4183868503416	-909.6259281954148	3584.611283654807	-561.9462503709178	-762.646210425746	3631.093113389996	-543.2765493122948	-565.8353235120155	3734.81831585951	-755.4915083525091	-299.83786797249576	3750.2651412834507	-840.2912473853639	-35.978016227033336	3754.9626519942076	-760.4022319640303	73.99132337208104	3828.854861162462	-720.4069221714931	90.24120695668124	3779.0082694882817	-706.0554777995585	94.78106921408262	3766.306076499242	-720.2441670218001	-625.8296901365377	3872.7644834994667	-500.74711922997903	-391.25898089720886	4011.189186926765	-466.8036032035794	-142.27635239595762	3963.115220506947	-376.5595518343136	-15.09808208203739	4005.675711675411	-398.80242113614224	14.352105290339226	3957.8093490329375	-350.76851237671167	-10.98924884602555	4086.9870096803447	-366.41285687218857
4	0.06666666666666667	-65.8340195838031	3890.6827036618693	-703.4896210743829	265.40824104553957	3989.9218391733293	-684.5368666122565	623.1657216215829	4226.608540435611	-693.0802269914891	699.2754286632287	4100.379030442613	-641.9007904778537	710.3936258709342	4160.069039523088	-738.0374498425568	667.5652744405227	4290.656577751134	-696.2079929595274	-118.06151761348747	3980.5584505583406	-511.62606986549673	217.65467149232657	4031.1151974092195	-492.9597039305054	576.2790668408742	4322.709729145367	-540.3704956849355	660.2565818772295	4179.429668674472	-490.2176864898087	636.4797726858658	4257.28354302616	-436.51203257694186	626.4203147713912	4372.355073190975	-567.7735246125502	-683.8143750641184	3741.8131763352676	-622.4442677403493	-909.434122925056	3584.3792303534797	-561.6771707383821	-757.9259798611168	3634.298906884641	-544.3284647003227	-565.8577006715607	3734.949358707626	-755.545312616982	-301.81466796395307	3777.34121516082	-848.9867147053642	-35.94556996536182	3755.121211260726	-760.4812529455409	73.95500804251859	3829.2990712459423	-720.6002090517638	90.19527601734038	3779.4151652854885	-706.2235941410345	94.90614852265182	3766.234384600889	-720.1927551957341	-625.8462411733699	3872.9350719931294	-500.8406277679498	-393.9679702404915	3978.9518128868986	-459.4217198469406	-142.3887381820498	3963.0035447948476	-376.4891204600048	-20.334357867050283	4001.6249005956724	-396.95506842766264	9.3297560204211	3953.7915514841293	-348.957418457371	-11.199081941118534	4086.49989474545	-366.11500432750313
5	0.08333333333333333	-65.68914004257418	3890.55744690625	-703.4266675189028	268.7110817651588	3972.530488508371	-670.0731415335383	623.1699013578769	4227.099917499542	-693.297777525507	699.2904421281813	4099.993791247974	-641.6130587731435	710.4774449181253	4160.249773581814	-738.1541297402048	666.6413074268199	4311.237321396202	-713.3068250191626	-117.28086658887327	3951.734874194081	-504.8324247696429	218.27584679279934	4035.2454073012354	-495.4017002463887	582.3277410311161	4326.249475541632	-539.7840078916392	655.799720961979	4148.475494171516	-484.0228588516124	636.5195316942488	4257.157893960567	-436.4463876154129	626.4477850920788	4372.115726306312	-567.7069540061982	-683.7945594407345	3741.7903462945346	-622.3811147169251	-909.5187485685294	3584.648244238846	-561.8549102425411	-762.6397087856143	3631.0578104175615	-543.1775444538639	-570.7952098069414	3733.199089156112	-755.5817660445545	-301.88733505027443	3777.2391017088357	-848.9588972241371	-35.92975007359965	3755.1940980570675	-760.6173263001565	73.88212811477672	3829.5318294925896	-720.718125378146	90.00531835968177	3779.799791277646	-706.3968350233245	94.74080849633167	3766.3689309356187	-720.2486186503584	-625.8545451377648	3872.866654476509	-500.81045187136317	-393.8250049132713	3978.6524755948385	-459.17470866379546	-142.13556287860465	3962.9142592800754	-376.3879377285972	-20.159199998513238	4001.441232227705	-396.70908106927675	9.274709119911813	3953.570912527135	-348.74890066389725	-10.871029084274983	4087.423700812935	-366.4064795335512
